inDegrees=yes
name=ik_S40_A06_T01
DataType=double
version=3
OpenSimVersion=4.3-2021-08-27-4bc7ad9
endheader
time	pelvis_tilt	pelvis_list	pelvis_rotation	pelvis_tx	pelvis_ty	pelvis_tz	hip_flexion_r	hip_adduction_r	hip_rotation_r	knee_angle_r	knee_angle_r_beta	ankle_angle_r	subtalar_angle_r	mtp_angle_r	hip_flexion_l	hip_adduction_l	hip_rotation_l	knee_angle_l	knee_angle_l_beta	ankle_angle_l	subtalar_angle_l	mtp_angle_l	lumbar_extension	lumbar_bending	lumbar_rotation	arm_flex_r	arm_add_r	arm_rot_r	elbow_flex_r	pro_sup_r	wrist_flex_r	wrist_dev_r	arm_flex_l	arm_add_l	arm_rot_l	elbow_flex_l	pro_sup_l	wrist_flex_l	wrist_dev_l
15.29999999999976	-6.212249454405826	-2.003452964375382	46.16139618521626	0	0.9399999999999999	0	37.50668626188348	-9.884129035161385	-9.581660178313056	44.02522421684486	0.7683851165126848	0	0	0	37.50668626188348	-9.884129035161385	-9.581660178313056	44.02522421684486	0.7683851165126848	0	0	0	-5.29054042233128	1.338101975430449	-6.364894545196837	21.8949290150475	-6.384867685923437	7.758296835746982	52.24411722544568	153.433774308253	0	0	19.57944077119614	1.00712818608189	-16.01796691292033	49.9908540107923	146.9717078122961	0	0
15.31999999999976	-6.214097571439186	-1.975063495801015	45.94917386741143	0	0.9399999999999999	0	37.5096498889209	-9.884287480483106	-9.582027187130326	44.02818566821421	0.7684368035897178	0	0	0	37.5096498889209	-9.884287480483106	-9.582027187130326	44.02818566821421	0.7684368035897178	0	0	0	-5.26567821094276	1.337049241811624	-6.1624351902485	21.12172862452799	-7.093279496656245	7.668047973283472	53.01793862333905	153.0278917635247	0	0	20.15823501426969	0.6104137222318652	-14.83890736299821	48.8834972212042	147.2106054839521	0	0
15.33999999999976	-6.258023794217617	-1.944984888406707	45.71334429056446	0	0.9399999999999999	0	37.51244699423507	-9.88443712058189	-9.582373774013144	44.03097700932926	0.7684855216827217	0	0	0	37.51244699423507	-9.88443712058189	-9.582373774013144	44.03097700932926	0.7684855216827217	0	0	0	-5.272250462929778	1.37492556820715	-6.025036920074927	21.10424575284535	-7.116433839065419	7.764523811015734	53.04775312923625	152.9518307899897	0	0	20.2900642637717	0.2802725346231164	-13.13023980616084	48.29639697488544	146.7296347503911	0	0
15.35999999999976	-6.329392611868168	-1.90239268252787	45.41994621547911	0	0.9399999999999999	0	37.5153940911469	-9.884594701680102	-9.582738874949982	44.03391729845335	0.7685368394088975	0	0	0	37.5153940911469	-9.884594701680102	-9.582738874949982	44.03391729845335	0.7685368394088975	0	0	0	-5.2909169469902	1.449908249157333	-5.962922874351492	21.18140081588597	-7.222360437581655	8.02312792587843	53.02247692067492	152.8752318725789	0	0	20.26031377527481	0.09246156312029874	-11.69560495674593	47.94055048990361	145.6656952839868	0	0
15.37999999999976	-6.357361168014598	-1.905258735061212	45.27796285635913	0	0.9399999999999999	0	37.51856120177074	-9.884763832962618	-9.583130971415457	44.03707826075193	0.768592008608539	0	0	0	37.51856120177074	-9.884763832962618	-9.583130971415457	44.03707826075193	0.768592008608539	0	0	0	-5.311235093188955	1.459168433704648	-5.881275318547516	21.24230247486135	-7.239018503127989	8.083846336194757	53.01476872283115	152.8740114627197	0	0	20.26960051212759	-0.1135888916511543	-10.69275520115445	47.76797107079781	144.7169317436937	0	0
15.39999999999976	-6.385024287223933	-1.929702557352162	45.20153017765288	0	0.9399999999999999	0	37.52082848198192	-9.884884213959062	-9.583410647789607	44.03935156265158	0.7686316852115798	0	0	0	37.52082848198192	-9.884884213959062	-9.583410647789607	44.03935156265158	0.7686316852115798	0	0	0	-5.34665067100945	1.453940845666504	-5.809765143342108	21.31451018750493	-7.251482124080372	8.073560227243401	53.02161001298609	152.890771570584	0	0	20.55291853889599	-0.1768503983986529	-10.19057181290565	47.15268779230037	143.9893905276236	0	0
15.41999999999976	-6.399401007732354	-1.945321476394419	45.09615758141167	0	0.9399999999999999	0	37.52391254643432	-9.885048229109936	-9.583791535954211	44.04243711627691	0.7686855382815888	0	0	0	37.52391254643432	-9.885048229109936	-9.583791535954211	44.04243711627691	0.7686855382815888	0	0	0	-5.365968373041968	1.44326148458204	-5.722844342594698	21.35870741924558	-7.245494454471123	8.081162230140819	52.96980424834421	152.9079681488988	0	0	21.10586840612005	0.1138169679697796	-9.683045015722504	46.22468680282589	143.3868917286917	0	0
15.43999999999976	-6.421058491489172	-1.986212360026645	45.02031412659374	0	0.9399999999999999	0	37.5274580247302	-9.885237071244994	-9.584229927750334	44.04597617985853	0.7687473065935254	0	0	0	37.5274580247302	-9.885237071244994	-9.584229927750334	44.04597617985853	0.7687473065935254	0	0	0	-5.40862221846509	1.420921117500437	-5.643153798436738	21.30190947850296	-7.164457739618667	7.317324532873471	53.17436658387822	153.4700540675162	0	0	21.20021351180117	0.06458136639023143	-9.672026324772457	46.04572998841366	143.3598878519549	0	0
15.45999999999976	-6.441745003992621	-2.030992337607045	44.97789634417769	0	0.9399999999999999	0	37.52931686290577	-9.885335532295212	-9.584458970455586	44.04783985530644	0.7687798338662799	0	0	0	37.52931686290577	-9.885335532295212	-9.584458970455586	44.04783985530644	0.7687798338662799	0	0	0	-5.452646958624001	1.392600088153173	-5.549147169525996	21.30360927729216	-7.089004135946809	7.192505640229961	53.21722838153695	153.5450473518713	0	0	21.50966429680962	0.4576181759389885	-9.18391830436207	45.73362105619647	143.3029190939529	0	0
15.47999999999976	-6.442695949918094	-2.08112916021648	45.0369663395393	0	0.9399999999999999	0	37.53229884601453	-9.88549353466421	-9.584826531490629	44.05082670743663	0.7688319642702222	0	0	0	37.53229884601453	-9.88549353466421	-9.584826531490629	44.05082670743663	0.7688319642702222	0	0	0	-5.489470042531341	1.361437088074485	-5.57677163595705	21.28247282776082	-7.006279292808375	7.182982392315777	53.26478364609846	153.6401691280449	0	0	21.59341491195081	0.3393807159078488	-9.186519090701514	45.39097089461942	142.5787972852447	0	0
15.49999999999976	-6.434966226401187	-2.120536295874194	45.0338057340032	0	0.9399999999999999	0	37.53349611179062	-9.885556485508875	-9.584973377538624	44.05203388825488	0.7688530335501673	0	0	0	37.53349611179062	-9.885556485508875	-9.584973377538624	44.05203388825488	0.7688530335501673	0	0	0	-5.511340992450396	1.325910524392321	-5.559758628592852	21.31751004940267	-6.964915760991221	7.140168041021065	53.2551786293075	153.6802365876923	0	0	21.67595148116907	0.4614928100590431	-9.106466474037688	45.32316741757602	142.5305416541186	0	0
15.51999999999976	-6.426317889901811	-2.154794109519174	45.08175162197096	0	0.9399999999999999	0	37.53568708439202	-9.885672704536644	-9.585243681478586	44.05422433549581	0.7688912640666129	0	0	0	37.53568708439202	-9.885672704536644	-9.585243681478586	44.05422433549581	0.7688912640666129	0	0	0	-5.529597032817182	1.296350428181328	-5.564401427721847	21.31529002086303	-6.897007204520789	7.247676341800846	53.25592133283473	153.7757687805845	0	0	21.80689453041938	0.5309582043841219	-9.101195651936127	45.16007075310891	142.4469200545756	0	0
15.53999999999976	-6.417088224815728	-2.162586214721395	45.10285369970912	0	0.9399999999999999	0	37.53761501005206	-9.885774565401793	-9.585480953968542	44.05615730572662	0.7689250007614836	0	0	0	37.53761501005206	-9.885774565401793	-9.585480953968542	44.05615730572662	0.7689250007614836	0	0	0	-5.528632314979633	1.28441299849509	-5.563209870425946	21.36333168838297	-6.896337874447449	7.243676929022945	53.23681944863475	153.9882358568836	0	0	21.87335167995411	0.5972734156629756	-9.095126572182435	45.07228474492243	142.3972564302809	0	0
15.55999999999976	-6.391182094969132	-2.187244571238207	45.16481612593606	0	0.9399999999999999	0	37.53952065749956	-9.885875467316973	-9.585715829911518	44.05806365373148	0.7689582728108573	0	0	0	37.53952065749956	-9.885875467316973	-9.585715829911518	44.05806365373148	0.7689582728108573	0	0	0	-5.52719186956164	1.245933220955145	-5.540612823179313	21.37135529565687	-6.859918293147826	7.209517678031759	53.21852398408141	154.1142070947017	0	0	21.93599778552163	0.5606394887937443	-9.033077150302145	44.97826851712547	142.3042293974611	0	0
15.57999999999976	-6.354881288449648	-2.205662728454246	45.29485003679599	0	0.9399999999999999	0	37.54117883519681	-9.885963036860989	-9.585919872386741	44.05972574265095	0.7689872817349629	0	0	0	37.54117883519681	-9.885963036860989	-9.585919872386741	44.05972574265095	0.7689872817349629	0	0	0	-5.51296020220602	1.199641816179834	-5.479382002073183	21.33303006654085	-6.874152044788999	7.08305212285787	53.19673441947493	154.1438950975989	0	0	22.01197681781816	0.5375243419480529	-8.870833733679296	44.85413913608937	142.1715063241986	0	0
15.59999999999976	-6.32891382904826	-2.211673667798016	45.34493688776401	0	0.9399999999999999	0	37.54855292756835	-9.886120344604485	-9.586514854539779	44.06787493941572	0.7691295120499011	0	0	0	37.54855292756835	-9.886120344604485	-9.586514854539779	44.06787493941572	0.7691295120499011	0	0	0	-5.499093850587928	1.177320863454087	-5.467848616255353	21.29284028801907	-6.848843035174786	7.009144904280246	53.20463634663629	154.2989185252652	0	0	22.08546091506978	0.4871743348958981	-8.796463321850091	44.69294217631564	141.9798163303262	0	0
